PathFileType	4	(X/Y/Z)	/Users/mathieubourgeois/Desktop/Analyse/Traitement/Sujet_02/Data/Transformed_Sujet_02_velo_80.trc
DataRate	CameraRate	NumFrames	NumMarkers	Units	OrigDataRate	OrigDataStartFrame	OrigNumFrames
120.000000	120.000000	4	36	mm	120.000000	235	1886
Frame#	Time	RFHD			RANE			STRN			LANI			LKNE			T10			RHUM			RWRB			C7			LFWT			LTOE			RTOE			LWRA			LBWT			RBWT			RFWT			LKNI			RKNI			RKNE			LANE			RANI			LHEE			RHEE			LHUM			LRAD			RRAD			RWRA			LWRB			LFHD			LBHD			RBHD			RSHO			LSHO			CLAV			LCAR			RCAR			
		X1	Y1	Z1	X2	Y2	Z2	X3	Y3	Z3	X4	Y4	Z4	X5	Y5	Z5	X6	Y6	Z6	X7	Y7	Z7	X8	Y8	Z8	X9	Y9	Z9	X10	Y10	Z10	X11	Y11	Z11	X12	Y12	Z12	X13	Y13	Z13	X14	Y14	Z14	X15	Y15	Z15	X16	Y16	Z16	X17	Y17	Z17	X18	Y18	Z18	X19	Y19	Z19	X20	Y20	Z20	X21	Y21	Z21	X22	Y22	Z22	X23	Y23	Z23	X24	Y24	Z24	X25	Y25	Z25	X26	Y26	Z26	X27	Y27	Z27	X28	Y28	Z28	X29	Y29	Z29	X30	Y30	Z30	X31	Y31	Z31	X32	Y32	Z32	X33	Y33	Z33	X34	Y34	Z34	X35	Y35	Z35	X36	Y36	Z36	

236	1.958333333333333	44.85482788085935	1474.825073242188	148.3509216308593	-281.3613891601562	609.1364135742188	181.9717864990234	-220.9949951171875	1278.187377929688	27.51672744750966	-218.7272796630859	283.9279479980469	-80.14305114746098	-214.5090789794922	717.3388061523438	-148.8382110595704	-372.5535278320312	1520.52099609375	27.50808715820299	-53.44581985473636	1188.546997070312	234.5733489990234	176.7114868164062	1025.610717773438	167.7698211669922	-129.8832244873047	1581.879516601562	31.54533576965321	-397.5263366699219	1213.846069335938	-102.018280029297	-29.01881599426268	211.0901947021484	-145.8385009765625	-93.81835174560548	492.4224853515625	156.1484680175781	220.9043884277344	1050.792236328125	-160.8179016113282	-589.589111328125	1204.765502929688	-47.96532821655288	-595.8525390625	1209.977783203125	73.46878814697251	-423.4603576660156	1237.036376953125	163.7154083251952	-176.5482177734375	683.4306640625	-48.34608459472663	-8.648250579833999	961.1468505859375	109.8283233642578	-67.82273864746097	987.0109252929688	221.6356964111328	-253.3169860839843	268.3837280273438	-168.1981658935547	-251.9258270263672	618.2096557617188	94.28813171386712	-317.4419250488281	237.16845703125	-123.7431716918946	-360.19287109375	597.4421997070312	127.8017120361327	-22.28843498229978	1215.054565429688	-173.2503814697266	37.39854049682619	1256.209594726562	-189.801742553711	4.1179537773132	1238.515991210938	266.0478820800781	207.7300720214843	1056.7626953125	221.6760101318359	182.6491851806641	1025.47509765625	-102.1463623046875	61.69325637817383	1427.503295898438	-0.372694432735523	-12.55772972106933	1557.912475585938	-36.51689910888681	-13.38095855712892	1590.41015625	119.3623733520507	-129.6292114257813	1518.392333984375	175.4014892578124	-111.2594833374023	1516.564575195312	-97.74937438964855	-116.1700820922852	1422.58935546875	32.45219802856435	294.7779846191406	1037.754760742188	-74.17945098876955	295.13134765625	1018.935913085938	146.2247924804687	
237	1.966666666666667	45.23062515258787	1474.623413085938	148.9604187011718	-272.3434448242188	610.7244873046875	182.2508392333984	-220.9640655517578	1278.119018554688	27.76152420043935	-228.6487426757812	283.98486328125	-80.17050170898442	-217.2643737792968	715.9702758789062	-148.6597137451173	-372.2837524414062	1520.437744140625	28.03969383239732	-53.51216125488284	1188.677124023438	234.7872772216796	176.618408203125	1025.633178710938	167.9017944335937	-129.9058990478516	1581.852172851562	32.15800094604481	-397.6476440429688	1213.900390625	-102.0326995849611	-40.63634872436521	205.8593597412109	-146.1901092529297	-81.29585266113283	500.4553527832031	155.7835388183593	220.7857360839844	1050.84619140625	-160.6559600830078	-589.7548828125	1204.878662109375	-47.64421844482436	-596.0874633789062	1209.993041992188	73.77489471435533	-423.6492309570312	1237.244506835938	163.7555541992186	-179.5363922119141	681.626953125	-48.26725006103522	-6.999274253845228	968.081787109375	108.7881393432617	-66.29093933105472	992.969482421875	219.851821899414	-263.6775207519531	267.8823547363281	-168.202133178711	-243.7008819580078	620.8475341796875	94.58598327636712	-328.3927001953125	238.0634918212891	-123.7337036132813	-351.6584777832031	596.6512451171875	128.4843597412109	-22.35167312622068	1215.243286132812	-172.9397888183595	37.34648513793947	1256.341918945312	-189.4514312744141	4.122042655944791	1238.68408203125	266.0927124023437	207.6352081298828	1056.812866210938	221.7688293457031	182.5732116699219	1025.495483398438	-102.0181961059571	62.20106506347656	1427.32373046875	0.3079681396483577	-12.27005004882812	1557.633666992188	-35.97063064575205	-13.16147613525392	1590.081176757812	119.9429550170897	-129.6790008544922	1518.398803710938	175.5660095214843	-111.1617279052734	1516.672607421875	-97.03490447998058	-116.0781097412109	1422.523681640625	32.8758430480956	294.6803894042969	1037.840087890625	-74.05445861816408	295.05322265625	1018.92919921875	146.4164733886718	
238	1.975	45.3944511413574	1474.333862304688	149.4972381591796	-263.1981201171875	611.1906127929688	182.629409790039	-220.9856719970703	1278.019653320312	28.05964088439931	-239.1236419677734	284.5636901855469	-80.18003845214848	-218.6179504394531	715.1558227539062	-148.421844482422	-371.9965515136719	1520.3349609375	28.63292694091783	-53.57903671264651	1188.85986328125	234.9594726562499	176.5292663574218	1025.666870117188	168.0123291015625	-129.9398345947266	1581.88525390625	32.67690277099598	-397.8769226074219	1214.015380859375	-102.0357818603517	-52.33395385742185	201.4219360351562	-146.4511260986328	-68.97518157958986	507.5103454589844	155.5435791015625	220.6895141601563	1050.878784179688	-160.4844360351563	-590.0272827148438	1204.931030273438	-47.35424423217788	-596.4180297851562	1209.9609375	74.03361511230455	-423.8632202148438	1237.416015625	163.7783050537108	-181.5643005371094	680.5302124023438	-48.05538558959967	-4.6024045944214	974.8908081054688	107.4243011474609	-65.02387237548831	997.9725341796875	218.8061218261718	-274.0283813476562	268.7853088378906	-168.0276184082032	-235.8855285644531	622.4212036132812	94.60850524902337	-339.9403686523438	240.7924652099609	-124.9032211303712	-342.3130798339844	594.4840087890625	128.3542327880859	-22.40137290954588	1215.368774414062	-172.5549774169923	37.2309150695801	1256.4599609375	-189.0744171142579	4.113487720489469	1238.892456054688	266.1037597656249	207.535903930664	1056.859741210938	221.8639068603515	182.4964141845703	1025.51220703125	-101.8629302978516	62.59071350097656	1427.20751953125	0.8460463881491818	-11.88781070709228	1557.497802734375	-35.42630767822275	-13.01148319244386	1589.788330078125	120.5133514404296	-129.7442169189453	1518.421264648438	175.6875152587889	-111.0070495605469	1516.696899414062	-96.35937500000011	-115.999870300293	1422.461669921875	33.24828338623037	294.6067199707031	1037.921264648438	-73.90219879150392	294.9750366210938	1018.890625	146.6208801269531	
239	1.983333333333333	45.59181594848631	1474.105102539062	150.0023193359374	-254.001449584961	610.6533813476562	182.9809875488281	-221.017333984375	1277.886352539062	28.42136573791493	-249.7225646972656	285.4620666503906	-80.15808868408207	-219.6415863037109	715.145263671875	-148.073699951172	-371.74072265625	1520.259399414062	29.14042282104478	-53.63261795043948	1189.057373046875	235.0802612304687	176.4651641845703	1025.716186523438	168.1082153320312	-130.020263671875	1581.948486328125	33.21976852416981	-398.2068786621094	1214.186157226562	-102.055030822754	-64.13883972167967	197.7701263427734	-146.6535797119141	-56.86431121826174	513.5638427734375	155.4213562011718	220.6145324707032	1050.891723632812	-160.346908569336	-590.3792114257812	1204.942504882812	-47.15351486206069	-596.7886352539062	1209.888427734375	74.25591278076158	-424.1586303710938	1237.622924804688	163.8178405761717	-182.7360382080078	680.2036743164062	-47.83719635009772	-3.991501092910779	979.77490234375	106.6903686523437	-64.04181671142581	1002.098754882812	217.7243347167968	-284.1681518554688	270.3947448730469	-167.9644165039063	-227.35888671875	622.8546142578125	94.9053649902343	-350.6448669433594	243.9223175048828	-124.6105041503907	-332.8818664550781	591.369140625	129.1014099121093	-22.48196220397947	1215.443725585938	-172.0861053466798	37.17823028564455	1256.52734375	-188.6894989013673	4.124162673950162	1239.109252929688	266.0745544433593	207.4512176513672	1056.909790039062	221.9653625488281	182.4645538330078	1025.505737304688	-101.7245407104492	62.99807357788086	1427.085571289062	1.385446310043255	-11.52149295806884	1557.308837890625	-34.99048995971689	-12.8527183532715	1589.52392578125	121.0319519042968	-129.7940216064453	1518.461303710938	175.8175201416014	-110.9523239135742	1516.69384765625	-95.75655364990246	-115.9507751464844	1422.4150390625	33.69807052612295	294.5715026855469	1037.9248046875	-73.74195861816408	294.9120178222656	1018.854797363281	146.7908325195312	
